<svg width="134" height="35" viewBox="0 0 134 35" fill="none" xmlns="http://www.w3.org/2000/svg">
  <path
      d="M22.1016 30.3438V34H0.9375V0.976562H5.41406V30.3438H22.1016ZM58.7578 17.3359C58.7578 20.8672 58.0859 23.9141 56.7422 26.4766C55.4141 29.0391 53.5234 31.0156 51.0703 32.4062C48.6172 33.7812 45.7109 34.4688 42.3516 34.4688C38.9766 34.4688 36.0625 33.7812 33.6094 32.4062C31.1719 31.0312 29.2891 29.0625 27.9609 26.5C26.6484 23.9375 25.9922 20.8828 25.9922 17.3359C25.9922 13.8047 26.6406 10.7891 27.9375 8.28906C29.25 5.77344 31.125 3.84375 33.5625 2.5C36.0156 1.15625 38.9609 0.484375 42.3984 0.484375C45.7734 0.484375 48.6797 1.14844 51.1172 2.47656C53.5703 3.80469 55.4531 5.72656 56.7656 8.24219C58.0938 10.7422 58.7578 13.7734 58.7578 17.3359ZM54.1875 17.3359C54.1875 13.2266 53.1562 10 51.0938 7.65625C49.0469 5.3125 46.1484 4.14062 42.3984 4.14062C38.6172 4.14062 35.6953 5.29687 33.6328 7.60938C31.5703 9.92188 30.5391 13.1641 30.5391 17.3359C30.5391 20.0859 31.0078 22.4766 31.9453 24.5078C32.8828 26.5234 34.2344 28.0859 36 29.1953C37.7656 30.2891 39.8828 30.8359 42.3516 30.8359C46.1641 30.8359 49.0859 29.6641 51.1172 27.3203C53.1641 24.9609 54.1875 21.6328 54.1875 17.3359ZM80.1328 30.8359C82.2891 30.8359 84.2969 30.5078 86.1562 29.8516C88.0312 29.1953 89.5469 28.3047 90.7031 27.1797V21.2266H80.8359V17.4766H94.8281V28.8672C93.0781 30.6484 90.9297 32.0312 88.3828 33.0156C85.8516 33.9844 83.1016 34.4688 80.1328 34.4688C76.6953 34.4688 73.7344 33.7734 71.25 32.3828C68.7656 30.9922 66.8516 29.0156 65.5078 26.4531C64.1641 23.875 63.4922 20.8359 63.4922 17.3359C63.4922 11.9766 64.9297 7.82812 67.8047 4.89062C70.6797 1.95313 74.7188 0.484375 79.9219 0.484375C83.5781 0.484375 86.5469 1.10156 88.8281 2.33594C91.1094 3.57031 92.8672 5.54688 94.1016 8.26562L89.8359 9.53125C88.8984 7.65625 87.6016 6.28906 85.9453 5.42969C84.3047 4.57031 82.2578 4.14062 79.8047 4.14062C75.9922 4.14062 73.0781 5.29687 71.0625 7.60938C69.0469 9.90625 68.0391 13.1484 68.0391 17.3359C68.0391 21.5078 69.1094 24.8047 71.25 27.2266C73.3906 29.6328 76.3516 30.8359 80.1328 30.8359ZM133.477 17.3359C133.477 20.8672 132.805 23.9141 131.461 26.4766C130.133 29.0391 128.242 31.0156 125.789 32.4062C123.336 33.7812 120.43 34.4688 117.07 34.4688C113.695 34.4688 110.781 33.7812 108.328 32.4062C105.891 31.0312 104.008 29.0625 102.68 26.5C101.367 23.9375 100.711 20.8828 100.711 17.3359C100.711 13.8047 101.359 10.7891 102.656 8.28906C103.969 5.77344 105.844 3.84375 108.281 2.5C110.734 1.15625 113.68 0.484375 117.117 0.484375C120.492 0.484375 123.398 1.14844 125.836 2.47656C128.289 3.80469 130.172 5.72656 131.484 8.24219C132.812 10.7422 133.477 13.7734 133.477 17.3359ZM128.906 17.3359C128.906 13.2266 127.875 10 125.812 7.65625C123.766 5.3125 120.867 4.14062 117.117 4.14062C113.336 4.14062 110.414 5.29687 108.352 7.60938C106.289 9.92188 105.258 13.1641 105.258 17.3359C105.258 20.0859 105.727 22.4766 106.664 24.5078C107.602 26.5234 108.953 28.0859 110.719 29.1953C112.484 30.2891 114.602 30.8359 117.07 30.8359C120.883 30.8359 123.805 29.6641 125.836 27.3203C127.883 24.9609 128.906 21.6328 128.906 17.3359Z"
      fill="white"/>
</svg>
